<svg xmlns="http://www.w3.org/2000/svg" xml:space="preserve" width="470" height="420" viewBox="276 107 470 420"><path d="M589.943 263.028c-2.558 5.927-5.873 6.93-9.688 2.71-3.25-3.595-6.493-3.736-10.72-2.352-20.65 6.762-32.98 32.51-25.165 52.862 5.203 13.548 24.044 21.452 37.238 15.442 4.656-2.121 8.865-4.735 7.583-11.264-.523-2.658 1.042-5.032 4.1-5.237 3.078-.207 4.366 2.036 4.912 4.676 2.717 13.149-.736 24.664-9.145 34.95-6.007 7.35-13.538 12.71-21.54 17.625-12.323 7.57-24.892 14.67-36.367 23.683-12.639 9.927-16.758 22.499-15.31 37.75.284 2.981.401 5.982.497 8.977.077 2.433-.091 5.03-3.31 5.115-3.36.09-3.27-2.579-3.345-4.984-.329-10.643-.486-21.265-3.752-31.61-2.365-7.49-6.503-13.62-12.968-17.768-9.522-6.11-19.212-12.027-29.195-17.34-16.32-8.684-27.585-21.772-35.013-38.377-4.163-9.306-3.136-19.254-2.77-29.066.986-26.458 12.369-48.828 26.505-70.51 12.84-19.692 27.245-38.256 40.113-57.877 7.456-11.368 14.25-23.371 15.075-37.59.167-2.87 1.939-4.65 4.738-4.954 2.793-.303 4.395 1.498 4.885 4.025 5.438 28.025 24.051 48.614 40.017 70.636 10.849 14.963 22.386 29.432 30.9 45.951.68 1.322 1.14 2.759 1.725 4.527"/><path d="M307.127 389.446c4.798-31.398 14.344-60.312 35.412-84.364 11.438-13.06 23.254-25.714 38.358-34.728.994-.593 1.972-1.336 3.059-1.626 3.177-.848 6.927-2.446 8.72 1.77 1.718 4.043-1.795 5.53-4.664 6.9-3.966 1.893-5.83 5.572-7.251 9.221-6.593 16.943-9.563 33.77 3.408 49.406 4.32 5.207 9.765 9.083 15.612 12.303 20.578 11.332 41.884 21.23 62.928 31.643 9.655 4.778 17.978 11.596 24.892 19.738 7.46 8.786 7.135 18.986 2.773 29.15-3.043 7.092-7.38 13.405-12.524 19.163-3.112 3.484-6.02 7.132-8.255 11.258-1.039 1.917-2.198 4.01-.612 6.058 1.552 2.002 3.91 1.48 6.048 1.17 1.312-.19 2.583-.65 3.892-.874 2.675-.457 5.14-.135 6.127 2.844.882 2.666-.598 4.518-2.744 5.808-4.562 2.74-8.934 6.023-13.832 7.93-10.965 4.268-21.387 10.69-33.363 11.482-20.148 1.333-40.817 6.833-60.415-.593-39.013-14.782-61.645-32.383-67.123-79.772-.904-7.818-1.054-15.607-.446-23.887M641.007 285.963c-2.277-3.72-4.478-7.066-6.392-10.57-1.894-3.465-1.544-6.991 1.57-9.48 3.013-2.407 5.584-.063 8.038 1.688 15.012 10.714 27.787 23.864 40.24 37.316 9 9.721 13.559 22.07 18.734 33.952 7.232 16.605 12.47 33.945 12.596 52.105.158 22.786-.361 45.624-13.357 65.988-15.028 23.55-36.798 35.02-64.028 38.213-22.226 2.605-44.176 2.18-65.985-2.863-8.66-2.003-16.502-6.141-24.467-9.907-1.31-.62-2.634-1.636-3.437-2.818-1.704-2.506-4.861-4.984-2.75-8.39 2.053-3.314 5.232-1.463 8.133-.796 3.241.747 6.796 1.405 9.397-1.431s1.686-6.248.561-9.444c-1.757-4.993-5.377-8.763-8.695-12.7-3.113-3.695-6.28-7.35-9.58-10.877-12.442-13.298-9.168-26.002.3-38.181 8.074-10.384 19.687-16.214 30.947-22.411 11.425-6.287 23.801-10.389 35.59-15.824 15.508-7.15 28.047-17.708 37.065-32.383 5.662-9.213 7.01-18.557 2.08-28.439-2.079-4.168-4.236-8.297-6.56-12.748M490.205 477.316c-1.15-9.997 2.53-17.405 10.772-22.175 9.217-5.333 18.35-4.128 26.558 2.247 7.172 5.57 9.869 13.15 7.738 22.137-2.072 8.734-9.65 14.921-19.85 16.399-7.898 1.144-17.838-3.706-22.126-10.847-1.373-2.287-2.467-4.709-3.092-7.76"/></svg>